# Blender 3.3.0
# www.blender.org
mtllib test_ground.mtl
o Cube
v 100.000000 1.000000 -100.000000
v 100.000000 -1.000000 -100.000000
v 100.000000 1.000000 100.000000
v 100.000000 -1.000000 100.000000
v -100.000000 1.000000 -100.000000
v -100.000000 -1.000000 -100.000000
v -100.000000 1.000000 100.000000
v -100.000000 -1.000000 100.000000
vn -0.0000 1.0000 -0.0000
vn -0.0000 -0.0000 1.0000
vn -1.0000 -0.0000 -0.0000
vn -0.0000 -1.0000 -0.0000
vn 1.0000 -0.0000 -0.0000
vn -0.0000 -0.0000 -1.0000
vt 0.833125 1.000000
vt 0.624226 0.500000
vt 0.375774 0.500000
vt 0.833125 0.000000
vt 0.624226 0.748453
vt 0.375774 0.748453
vt 0.166875 1.000000
vt 0.624226 0.251547
vt 0.127321 0.500000
vt 0.375774 0.251547
vt 0.166875 0.000000
vt 0.624226 0.996905
vt 0.624226 0.003095
vt 0.375774 0.003095
vt 0.375774 0.996905
vt 0.127321 0.748453
s 0
usemtl Material
f 5/7/1 3/4/1 1/1/1
f 3/5/2 8/15/2 4/6/2
f 7/13/3 6/10/3 8/14/3
f 2/3/4 8/16/4 6/9/4
f 1/2/5 4/6/5 2/3/5
f 5/8/6 2/3/6 6/10/6
f 5/7/1 7/11/1 3/4/1
f 3/5/2 7/12/2 8/15/2
f 7/13/3 5/8/3 6/10/3
f 2/3/4 4/6/4 8/16/4
f 1/2/5 3/5/5 4/6/5
f 5/8/6 1/2/6 2/3/6
