# Blender 3.3.0
# www.blender.org
mtllib test_cube.mtl
o Cube
v 1.000000 1.000000 -1.000000
v 1.000000 -1.000000 -1.000000
v 1.000000 1.000000 1.000000
v 1.000000 -1.000000 1.000000
v -1.000000 1.000000 -1.000000
v -1.000000 -1.000000 -1.000000
v -1.000000 1.000000 1.000000
v -1.000000 -1.000000 1.000000
vn -0.0000 1.0000 -0.0000
vn -0.0000 -0.0000 1.0000
vn -1.0000 -0.0000 -0.0000
vn -0.0000 -1.0000 -0.0000
vn 1.0000 -0.0000 -0.0000
vn -0.0000 -0.0000 -1.0000
vt 1.000000 0.000000
vt 1.000000 1.000000
vt 1.000000 0.000000
vt 0.000000 -0.000000
vt 0.000000 1.000000
vt -0.000000 1.000000
vt 0.000000 0.000000
vt 1.000000 1.000000
vt 0.000000 1.000000
vt 1.000000 1.000000
vt 0.000000 0.000000
vt 1.000000 0.000000
vt 1.000000 0.000000
vt 0.000000 1.000000
vt 0.000000 0.000000
vt 1.000000 1.000000
vt -0.000000 1.000000
s 0
usemtl Berry
f 5/8/1 3/4/1 1/1/1
f 7/14/3 6/12/3 8/15/3
f 1/2/5 4/7/5 2/3/5
f 5/8/1 7/14/1 3/4/1
f 7/14/3 5/8/3 6/12/3
f 1/2/5 3/5/5 4/7/5
usemtl Container
f 3/4/2 8/16/2 4/6/2
f 2/3/4 8/17/4 6/10/4
f 5/9/6 2/3/6 6/11/6
f 3/4/2 7/13/2 8/16/2
f 2/3/4 4/7/4 8/17/4
f 5/9/6 1/2/6 2/3/6
